<svg width="800" height="800" viewBox="0 0 800 800" fill="none" xmlns="http://www.w3.org/2000/svg">
<g clip-path="url(#clip0_1_13)">
<g clip-path="url(#clip1_1_13)">
<path d="M656.805 562.251C519.348 604.032 374.035 526.414 332.233 388.89C314.349 330.053 318.452 269.843 339.602 216.862C235.463 275.373 182.104 400.174 218.294 519.234C260.095 656.756 405.409 734.376 542.866 692.595C621.509 668.69 680.398 610.816 708.683 539.961C692.531 549.037 675.259 556.641 656.805 562.251Z" fill="#FFE818" fill-opacity="0.4"/>
<path d="M477.621 643.479C492.894 638.837 501.509 622.687 496.864 607.406C492.22 592.126 476.074 583.502 460.801 588.144C445.529 592.787 436.914 608.937 441.558 624.217C446.203 639.497 462.349 648.121 477.621 643.479Z" fill="#E1D988"/>
<path d="M338.815 542.946C351.541 539.078 358.721 525.619 354.85 512.885C350.98 500.152 337.525 492.965 324.798 496.834C312.071 500.702 304.892 514.161 308.762 526.894C312.633 539.628 326.088 546.815 338.815 542.946Z" fill="#E1D988"/>
<path d="M283.789 491.668C294.395 488.445 300.378 477.229 297.152 466.618C293.927 456.007 282.714 450.018 272.109 453.241C261.503 456.465 255.52 467.681 258.745 478.292C261.971 488.903 273.183 494.892 283.789 491.668Z" fill="#E1D988"/>
<path d="M333.42 392.782C333.402 392.787 333.382 392.787 333.36 392.794C312.574 399.112 300.848 421.095 307.17 441.893C313.492 462.692 335.468 474.431 356.254 468.113C360.526 466.814 364.295 464.722 367.723 462.25C353.202 441.442 341.562 418.16 333.42 392.782Z" fill="#E1D988"/>
<path d="M552.34 689.391C554.023 688.808 555.71 688.232 557.374 687.618C557.995 687.389 558.601 687.141 559.219 686.908C560.972 686.247 562.723 685.587 564.452 684.892C564.932 684.698 565.403 684.489 565.882 684.293C567.732 683.537 569.579 682.776 571.403 681.98C571.904 681.761 572.394 681.526 572.893 681.305C574.684 680.511 576.472 679.714 578.238 678.881C578.547 678.736 578.847 678.579 579.155 678.433C581.098 677.508 583.034 676.571 584.945 675.602C585.123 675.512 585.297 675.415 585.474 675.324C587.509 674.287 589.528 673.231 591.528 672.146C591.568 672.124 591.606 672.1 591.648 672.079C645.769 642.628 686.447 595.347 708.557 540.168C692.667 549.012 675.679 556.411 657.574 561.914C657.477 561.944 657.378 561.968 657.28 561.996C657.123 562.044 656.968 562.099 656.809 562.147C653.402 563.183 649.99 564.123 646.575 565.013C620.149 616.61 573.793 657.903 513.968 676.087C396.873 711.68 273.092 645.561 237.483 528.411C208.801 434.05 246.121 335.416 322.892 281.993C325.64 259.482 331.304 237.562 339.609 216.758C250.114 267.039 198.123 366.277 208.236 468.756C208.242 468.82 208.251 468.886 208.257 468.951C208.436 470.747 208.631 472.544 208.849 474.341C208.874 474.555 208.907 474.77 208.934 474.985C209.137 476.634 209.35 478.284 209.586 479.934C209.634 480.271 209.692 480.609 209.741 480.948C209.965 482.476 210.195 484.004 210.447 485.532C210.519 485.969 210.604 486.406 210.678 486.842C210.921 488.272 211.166 489.703 211.435 491.134C211.541 491.698 211.663 492.263 211.771 492.827C212.025 494.13 212.276 495.434 212.55 496.736C212.701 497.461 212.872 498.184 213.032 498.908C213.283 500.052 213.527 501.195 213.792 502.337C214.007 503.259 214.244 504.179 214.469 505.1C214.7 506.046 214.922 506.991 215.164 507.936C215.473 509.138 215.804 510.339 216.13 511.538C216.311 512.203 216.479 512.868 216.666 513.532C217.188 515.398 217.733 517.262 218.3 519.125C260.101 656.648 405.415 734.268 542.872 692.486C545.327 691.74 547.764 690.959 550.181 690.147C550.905 689.907 551.618 689.639 552.34 689.391Z" fill="#E1D988"/>
<path d="M222.05 355.629C224.075 356.44 226.216 356.482 228.154 355.893C230.738 355.108 232.954 353.199 234.035 350.496C234.861 348.431 235.731 346.337 236.622 344.275C238.639 339.598 236.485 334.17 231.809 332.151C227.134 330.13 221.709 332.285 219.693 336.962C218.739 339.174 217.805 341.419 216.917 343.637C215.026 348.367 217.323 353.735 222.05 355.629Z" fill="#1A0E0E" fill-opacity="0.44"/>
<path d="M222.236 355.165L222.236 355.165C224.152 355.932 226.176 355.972 228.008 355.415C230.453 354.672 232.548 352.866 233.57 350.311L233.57 350.311C234.399 348.241 235.27 346.144 236.162 344.077C238.071 339.654 236.033 334.519 231.611 332.61L231.611 332.61C227.19 330.699 222.059 332.737 220.152 337.16L220.152 337.16C219.2 339.368 218.268 341.609 217.382 343.822L222.236 355.165ZM222.236 355.165C217.765 353.374 215.593 348.297 217.382 343.823L222.236 355.165Z" stroke="#1A0E0E" stroke-opacity="0.44"/>
<path d="M717.033 523.976C714.011 521.497 709.754 521.185 706.412 523.217C690.523 532.841 673.931 540.622 657.098 546.345C526.111 590.88 383.299 520.49 338.746 389.434C320.24 334.999 320.826 277.573 340.442 223.365C341.773 219.69 340.641 215.574 337.619 213.094C334.598 210.614 330.339 210.303 326.999 212.335C288.07 235.908 255.506 269.356 232.829 309.061C230.302 313.483 231.838 319.117 236.26 321.645C240.68 324.175 246.311 322.639 248.837 318.216C265.677 288.733 288.362 262.957 315.233 242.592C302.296 293.082 304.301 345.4 321.289 395.369C344.457 463.52 392.764 518.574 457.31 550.388C521.858 582.204 594.918 586.971 663.034 563.812C672.991 560.427 682.86 556.376 692.56 551.7C663.464 612.298 611.726 658.494 547.469 680.341C416.483 724.876 273.671 654.486 229.118 523.43C217.531 489.347 213.41 454.058 216.869 418.541C217.364 413.472 213.655 408.96 208.586 408.465C203.518 407.969 199.01 411.678 198.517 416.748C194.802 454.893 199.226 492.783 211.662 529.365C234.831 597.516 283.138 652.571 347.684 684.385C412.229 716.197 485.29 720.965 553.406 697.806C631.14 671.376 691.809 611.761 719.856 534.248C721.187 530.573 720.055 526.456 717.033 523.976Z" fill="#0B0B0B" fill-opacity="0.51"/>
<path d="M706.671 523.645L706.672 523.644C709.831 521.723 713.857 522.017 716.716 524.363C719.574 526.709 720.644 530.602 719.386 534.078L719.856 534.248L719.386 534.078C691.39 611.449 630.834 670.952 553.245 697.332C485.254 720.449 412.331 715.69 347.905 683.936C283.478 652.181 235.261 597.23 212.136 529.205C199.722 492.689 195.307 454.87 199.015 416.796L198.517 416.748L199.015 416.796C199.481 412.001 203.744 408.493 208.538 408.962C213.331 409.431 216.839 413.698 216.371 418.492L216.869 418.541L216.371 418.492C212.905 454.081 217.035 489.442 228.644 523.59C273.287 654.908 416.382 725.438 547.63 680.815C612.014 658.924 663.856 612.635 693.011 551.917L693.628 550.63L692.343 551.25C682.661 555.917 672.81 559.96 662.874 563.338C594.883 586.455 521.96 581.697 457.531 549.94C393.104 518.185 344.888 463.233 321.762 395.208C304.806 345.33 302.805 293.111 315.718 242.716L316.073 241.328L314.931 242.193C288.007 262.599 265.276 288.427 248.403 317.968C246.014 322.152 240.688 323.604 236.508 321.211L236.508 321.211C232.326 318.82 230.873 313.492 233.263 309.31L233.263 309.309C255.898 269.678 288.402 236.292 327.258 212.762L327.258 212.762C330.416 210.841 334.444 211.134 337.302 213.481L337.302 213.481C340.16 215.826 341.23 219.72 339.972 223.195L339.972 223.195C320.317 277.51 319.73 335.052 338.272 389.595C382.915 520.912 526.01 591.442 657.259 546.818C674.128 541.083 690.753 533.286 706.671 523.645Z" stroke="#1A0E0E" stroke-opacity="0.44"/>
<path d="M363.906 318.439C363.906 318.439 357.072 232.452 465.615 215.678C574.159 198.903 605.784 266.424 605.784 266.424C605.784 266.424 641.981 261.014 675.538 278.906C701.885 292.96 705.608 314.057 705.608 314.057C705.608 314.057 740.249 310.672 769.094 328.625C789.973 341.621 787.946 358.304 787.946 358.304L745.905 382L318.66 374.595L296.178 359.12C296.178 359.12 292.596 341.953 317.576 329.048C342.555 316.112 363.906 318.439 363.906 318.439Z" fill="#E2EBEE"/>
<path d="M686.744 352C686.744 352 669.72 364.215 615.725 363.407C561.73 362.598 547.536 353.617 547.536 353.617C547.536 353.617 523.863 369.394 455.438 366.041C387.013 362.688 367.349 353.527 367.349 353.527C367.349 353.527 350.655 361.101 329.529 361.311C308.449 361.52 296 359.185 296 359.185C296 359.185 298.216 369.843 305.573 376.669C312.929 383.496 325.19 388.705 344.572 388.615C364.001 388.525 423.041 388.855 482.978 388.795C542.915 388.735 714.189 389.364 739.513 388.675C758.8 388.166 772.806 380.951 779.266 374.843C789.594 365.083 787.896 354.784 787.896 354.784C787.896 354.784 768.467 364.455 742.248 363.736C706.409 362.778 686.744 352 686.744 352Z" fill="#B9CED3"/>
</g>
<path d="M477.613 575.966C477.613 575.966 484.294 444.696 378.177 419.088C272.06 393.48 241.142 496.558 241.142 496.558C241.142 496.558 205.755 488.299 172.947 515.614C147.19 537.07 143.55 569.276 143.55 569.276C143.55 569.276 109.683 564.108 81.4834 591.516C61.071 611.356 63.0524 636.826 63.0524 636.826L104.154 673L521.847 661.696L543.826 638.072C543.826 638.072 547.328 611.864 522.907 592.162C498.486 572.413 477.613 575.966 477.613 575.966Z" fill="#E2EBEE"/>
<path d="M161.992 627C161.992 627 178.635 645.818 231.423 644.572C284.211 643.327 298.088 629.491 298.088 629.491C298.088 629.491 321.231 653.797 388.126 648.631C455.022 643.465 474.246 629.352 474.246 629.352C474.246 629.352 490.567 641.021 511.221 641.344C531.829 641.667 544 638.069 544 638.069C544 638.069 541.833 654.489 534.641 665.004C527.449 675.52 515.462 683.545 496.514 683.407C477.52 683.269 419.799 683.776 361.202 683.684C302.606 683.591 135.16 684.56 110.403 683.499C91.547 682.715 77.8545 671.6 71.5384 662.191C61.4419 647.155 63.1016 631.289 63.1016 631.289C63.1016 631.289 82.096 646.187 107.729 645.08C142.767 643.604 161.992 627 161.992 627Z" fill="#B9CED3"/>
</g>
<defs>
<clipPath id="clip0_1_13">
<rect width="800" height="800" fill="white"/>
</clipPath>
<clipPath id="clip1_1_13">
<rect width="605" height="590" fill="white" transform="translate(134 261.949) rotate(-16.9073)"/>
</clipPath>
</defs>
</svg>
