<svg width="800" height="800" viewBox="0 0 800 800" fill="none" xmlns="http://www.w3.org/2000/svg">
<g clip-path="url(#clip0_1_23)">
<g clip-path="url(#clip1_1_23)">
<path d="M618.805 333.251C481.348 375.032 336.035 297.414 294.233 159.89C276.349 101.053 280.452 40.8425 301.602 -12.1378C197.463 46.3733 144.104 171.174 180.294 290.234C222.095 427.756 367.409 505.376 504.866 463.595C583.509 439.69 642.398 381.816 670.683 310.961C654.531 320.037 637.259 327.641 618.805 333.251Z" fill="#FFE818" fill-opacity="0.4"/>
<path d="M439.621 414.479C454.894 409.837 463.509 393.686 458.864 378.406C454.22 363.126 438.074 354.502 422.802 359.144C407.529 363.786 398.914 379.937 403.558 395.217C408.203 410.497 424.349 419.121 439.621 414.479Z" fill="#E0E0E3"/>
<path d="M300.815 313.946C313.542 310.077 320.721 296.619 316.851 283.885C312.98 271.152 299.525 263.965 286.798 267.834C274.071 271.702 266.892 285.161 270.762 297.894C274.633 310.628 288.088 317.815 300.815 313.946Z" fill="#E1D988"/>
<path d="M245.789 262.668C256.395 259.445 262.378 248.229 259.152 237.618C255.927 227.006 244.714 221.018 234.109 224.241C223.503 227.465 217.52 238.681 220.745 249.292C223.971 259.903 235.183 265.892 245.789 262.668Z" fill="#E1D988"/>
<path d="M295.42 163.782C295.403 163.787 295.382 163.787 295.36 163.794C274.574 170.112 262.848 192.095 269.17 212.893C275.492 233.692 297.469 245.431 318.254 239.113C322.526 237.814 326.295 235.722 329.723 233.25C315.202 212.442 303.562 189.16 295.42 163.782Z" fill="#E1D988"/>
<path d="M514.34 460.39C516.023 459.808 517.71 459.231 519.374 458.618C519.995 458.389 520.601 458.141 521.219 457.908C522.972 457.247 524.723 456.587 526.452 455.892C526.932 455.698 527.403 455.489 527.882 455.293C529.732 454.537 531.579 453.776 533.404 452.98C533.904 452.761 534.394 452.526 534.893 452.305C536.684 451.511 538.472 450.714 540.238 449.881C540.547 449.736 540.847 449.579 541.155 449.433C543.098 448.508 545.034 447.571 546.945 446.602C547.123 446.512 547.297 446.415 547.474 446.323C549.509 445.287 551.528 444.231 553.528 443.146C553.568 443.124 553.606 443.1 553.648 443.079C607.769 413.628 648.447 366.347 670.557 311.168C654.667 320.012 637.68 327.411 619.575 332.914C619.477 332.944 619.378 332.968 619.28 332.996C619.123 333.044 618.968 333.099 618.809 333.147C615.403 334.183 611.99 335.123 608.575 336.013C582.149 387.61 535.793 428.903 475.968 447.087C358.873 482.68 235.092 416.561 199.483 299.411C170.801 205.05 208.121 106.416 284.892 52.993C287.64 30.4816 293.304 8.5619 301.609 -12.242C212.114 38.0387 160.123 137.277 170.236 239.756C170.242 239.82 170.251 239.886 170.257 239.951C170.436 241.747 170.631 243.544 170.849 245.341C170.874 245.555 170.907 245.77 170.934 245.985C171.137 247.634 171.351 249.284 171.586 250.934C171.634 251.271 171.692 251.609 171.741 251.948C171.965 253.476 172.195 255.004 172.447 256.532C172.519 256.969 172.604 257.406 172.678 257.842C172.921 259.272 173.166 260.703 173.435 262.134C173.541 262.698 173.663 263.263 173.771 263.827C174.025 265.13 174.276 266.434 174.55 267.736C174.702 268.461 174.872 269.184 175.032 269.908C175.283 271.052 175.527 272.195 175.792 273.337C176.008 274.259 176.244 275.179 176.469 276.1C176.7 277.046 176.922 277.991 177.164 278.936C177.473 280.138 177.804 281.339 178.13 282.538C178.311 283.203 178.479 283.868 178.666 284.532C179.189 286.398 179.733 288.262 180.3 290.125C222.102 427.648 367.415 505.268 504.872 463.486C507.327 462.74 509.764 461.959 512.181 461.147C512.905 460.907 513.618 460.639 514.34 460.39Z" fill="#E1D988"/>
<path d="M184.05 126.629C186.075 127.44 188.216 127.482 190.153 126.893C192.737 126.108 194.954 124.199 196.035 121.496C196.861 119.431 197.731 117.337 198.622 115.275C200.639 110.598 198.485 105.17 193.809 103.151C189.134 101.13 183.709 103.285 181.693 107.962C180.739 110.174 179.805 112.419 178.917 114.637C177.026 119.367 179.323 124.735 184.05 126.629Z" fill="#1A0E0E" fill-opacity="0.44"/>
<path d="M184.236 126.165L184.236 126.165C179.765 124.374 177.593 119.297 179.381 114.823C180.268 112.609 181.2 110.368 182.152 108.16L182.152 108.16C184.059 103.737 189.19 101.699 193.611 103.61L193.611 103.61C198.033 105.519 200.071 110.654 198.162 115.077C197.27 117.143 196.399 119.241 195.57 121.31L195.57 121.311C194.548 123.866 192.453 125.672 190.008 126.415C188.176 126.972 186.152 126.932 184.236 126.165Z" stroke="#1A0E0E" stroke-opacity="0.44"/>
<path d="M679.033 294.976C676.01 292.497 671.754 292.185 668.412 294.217C652.523 303.841 635.931 311.622 619.098 317.345C488.111 361.88 345.299 291.49 300.746 160.434C282.24 105.999 282.826 48.5732 302.442 -5.63485C303.773 -9.30957 302.641 -13.4263 299.619 -15.9057C296.598 -18.3863 292.339 -18.6968 288.998 -16.6654C250.07 6.90825 217.506 40.3563 194.829 80.0614C192.302 84.4834 193.838 90.1165 198.26 92.6453C202.679 95.1748 208.311 93.6393 210.837 89.2164C227.677 59.7332 250.362 33.9572 277.233 13.5917C264.296 64.0818 266.301 116.4 283.289 166.369C306.457 234.52 354.764 289.574 419.31 321.388C483.858 353.204 556.918 357.971 625.034 334.812C634.991 331.427 644.86 327.376 654.56 322.7C625.464 383.298 573.725 429.494 509.469 451.341C378.483 495.876 235.671 425.486 191.118 294.429C179.531 260.347 175.41 225.058 178.869 189.541C179.364 184.472 175.655 179.96 170.586 179.464C165.518 178.969 161.01 182.678 160.517 187.748C156.802 225.893 161.226 263.783 173.662 300.365C196.83 368.516 245.138 423.571 309.683 455.385C374.229 487.197 447.29 491.965 515.406 468.805C593.14 442.376 653.809 382.761 681.856 305.248C683.187 301.573 682.055 297.456 679.033 294.976Z" fill="#0B0B0B" fill-opacity="0.51"/>
<path d="M668.671 294.645L668.672 294.644C671.831 292.723 675.857 293.017 678.715 295.363C681.574 297.709 682.644 301.602 681.386 305.078L681.788 305.224L681.385 305.078C653.39 382.449 592.834 441.952 515.245 468.332C447.254 491.449 374.331 486.69 309.905 454.936C245.478 423.181 197.261 368.23 174.136 300.204C161.722 263.689 157.307 225.87 161.015 187.796L160.562 187.752L161.015 187.796C161.481 183.001 165.744 179.493 170.538 179.962C175.331 180.431 178.839 184.698 178.371 189.492L178.869 189.541L178.371 189.492C174.905 225.081 179.035 260.442 190.644 294.59C235.287 425.908 378.382 496.438 509.63 451.815C574.014 429.924 625.856 383.635 655.011 322.917L655.628 321.63L654.343 322.25C644.661 326.917 634.81 330.96 624.873 334.338C556.883 357.455 483.96 352.697 419.531 320.94C355.104 289.184 306.888 234.233 283.762 166.208C266.806 116.33 264.805 64.1112 277.717 13.7158L278.073 12.3277L276.931 13.1933C250.006 33.5994 227.276 59.4265 210.403 88.9684C208.014 93.1515 202.688 94.6035 198.508 92.2114L198.508 92.2113C194.326 89.8195 192.873 84.4917 195.263 80.3095L195.263 80.3094C217.898 40.6778 250.402 7.29169 289.257 -16.2377L289.258 -16.2382C292.416 -18.1587 296.444 -17.8658 299.302 -15.5192L299.302 -15.5191C302.16 -13.1741 303.23 -9.28048 301.972 -5.8051L301.972 -5.80497C282.317 48.5096 281.73 106.052 300.272 160.595C344.915 291.912 488.01 362.442 619.259 317.818C636.128 312.083 652.753 304.286 668.671 294.645Z" stroke="#1A0E0E" stroke-opacity="0.44"/>
</g>
<path d="M620.125 407.25C620.125 407.25 642.25 260.563 510.125 225.813C366.688 188.063 333.062 321.25 333.062 321.25C333.062 321.25 291.312 309.875 252.75 340.875C222.562 365.125 217.375 407.875 217.375 407.875C217.375 407.875 158.562 405.875 133.312 446.438C109.312 485 133.312 510.313 133.312 510.313L480.438 496.375L694.125 497.625C694.125 497.625 709.562 457.5 679.875 429.688C650.125 401.938 620.125 407.25 620.125 407.25Z" fill="#E2EBEE"/>
<path d="M383.062 421.812C383.062 421.812 409.625 448.375 479.188 443.937C548.75 439.5 585.375 414.875 593.625 411.062C601.875 407.25 611.312 398.438 614.5 404.75C617.688 411.063 610.687 428.75 601.25 441.437C591.75 454.062 586.438 461.75 584.812 467.375C583.562 471.812 604.438 478.125 643.625 480C677.125 481.625 698.25 474.875 698.25 474.875C698.25 474.875 699.188 495.938 691 512.375C683.375 527.563 675.438 532.5 662.812 535.062C656.312 536.375 533.625 536.312 428.062 538.812C322.5 541.312 184.625 545.75 161.25 538.188C137.875 530.625 132.125 515.812 129.125 510.062C123.875 500.188 122.75 484.75 122.75 484.75C122.75 484.75 148.625 497.75 185.312 492.688C222 487.625 241.562 468.687 246.625 466.75C251.688 464.875 275.688 476.875 313.625 467.375C366.625 454.062 383.062 421.812 383.062 421.812Z" fill="#B9CED3"/>
<path d="M295.375 568.187C287.125 565.187 251.313 590.875 238.438 625.125C219.438 675.687 287.125 692.562 301.375 643.875C306.813 625.375 306.75 572.312 295.375 568.187Z" fill="#4FC2F7"/>
<path d="M562.937 605.062C555.625 601.812 526.562 623.938 513.375 642.5C500.75 660.25 489.5 690.25 520.5 705.625C554.312 722.313 569.687 686 571.125 659.625C572.437 635.75 569.375 607.937 562.937 605.062Z" fill="#4FC2F7"/>
<path d="M415.75 665C406.562 662.813 371.312 691.438 358.687 718.125C333.375 771.625 411.125 790.5 420.75 739.187C426.875 706.625 423.25 666.75 415.75 665Z" fill="#4FC2F7"/>
<path d="M382.75 706.563C375.437 703.625 361.187 721.562 362.75 737.5C364.375 753.437 377.5 754.875 383.75 746.063C392.125 734.375 390 709.438 382.75 706.563Z" fill="#AFE6F8"/>
<path d="M260.5 609.75C253.562 606.5 241.687 625.5 241.812 635.312C242.125 655.312 256.875 656.625 263.75 646.75C270.625 636.937 270.312 614.375 260.5 609.75Z" fill="#AFE6F8"/>
<path d="M530.188 648.562C521.938 644.625 507.75 662.813 508.813 676C510.688 698.75 528.75 697.375 534.812 684.937C540.875 672.5 537.625 652.125 530.188 648.562Z" fill="#AFE6F8"/>
</g>
<defs>
<clipPath id="clip0_1_23">
<rect width="800" height="800" fill="white"/>
</clipPath>
<clipPath id="clip1_1_23">
<rect width="605" height="590" fill="white" transform="translate(96 32.9489) rotate(-16.9073)"/>
</clipPath>
</defs>
</svg>
