<svg width="751" height="741" viewBox="0 0 751 741" fill="none" xmlns="http://www.w3.org/2000/svg">
<g clip-path="url(#clip0_1_39)">
<path d="M522.805 476.251C385.348 518.032 240.035 440.414 198.233 302.89C180.349 244.053 184.452 183.842 205.602 130.862C101.463 189.373 48.1038 314.174 84.2935 433.234C126.095 570.756 271.409 648.376 408.866 606.594C487.509 582.69 546.398 524.816 574.683 453.961C558.531 463.037 541.259 470.641 522.805 476.251Z" fill="#FFE818" fill-opacity="0.4"/>
<path d="M343.621 557.479C358.894 552.837 367.509 536.686 362.864 521.406C358.22 506.126 342.074 497.502 326.802 502.144C311.529 506.786 302.914 522.937 307.558 538.217C312.203 553.497 328.349 562.121 343.621 557.479Z" fill="#E1D988"/>
<path d="M204.815 456.946C217.542 453.077 224.721 439.619 220.851 426.885C216.98 414.152 203.525 406.965 190.798 410.834C178.071 414.702 170.892 428.161 174.762 440.894C178.633 453.628 192.088 460.814 204.815 456.946Z" fill="#E1D988"/>
<path d="M149.789 405.668C160.395 402.445 166.378 391.229 163.152 380.618C159.927 370.006 148.714 364.018 138.109 367.241C127.503 370.465 121.52 381.681 124.745 392.292C127.971 402.903 139.183 408.892 149.789 405.668Z" fill="#E1D988"/>
<path d="M199.42 306.782C199.403 306.787 199.382 306.787 199.36 306.794C178.574 313.112 166.848 335.095 173.17 355.893C179.492 376.692 201.469 388.431 222.254 382.113C226.526 380.814 230.295 378.722 233.723 376.25C219.202 355.442 207.562 332.16 199.42 306.782Z" fill="#E1D988"/>
<path d="M418.34 603.39C420.023 602.808 421.71 602.231 423.374 601.618C423.995 601.389 424.601 601.141 425.219 600.908C426.972 600.247 428.723 599.587 430.452 598.892C430.932 598.698 431.403 598.489 431.882 598.293C433.732 597.537 435.579 596.776 437.404 595.98C437.904 595.761 438.394 595.526 438.893 595.305C440.684 594.511 442.472 593.714 444.238 592.881C444.547 592.736 444.847 592.579 445.155 592.433C447.098 591.508 449.034 590.571 450.945 589.602C451.123 589.512 451.297 589.414 451.474 589.323C453.509 588.287 455.528 587.231 457.528 586.146C457.568 586.124 457.606 586.1 457.648 586.079C511.769 556.628 552.447 509.347 574.557 454.168C558.667 463.012 541.68 470.411 523.575 475.914C523.477 475.944 523.378 475.968 523.28 475.996C523.123 476.044 522.968 476.099 522.809 476.147C519.403 477.183 515.99 478.123 512.575 479.013C486.149 530.61 439.793 571.903 379.968 590.087C262.873 625.68 139.092 559.561 103.483 442.41C74.8006 348.05 112.121 249.416 188.892 195.993C191.64 173.482 197.304 151.562 205.609 130.758C116.114 181.039 64.1226 280.277 74.2358 382.756C74.2423 382.82 74.2515 382.886 74.2573 382.951C74.4357 384.747 74.6309 386.544 74.8487 388.341C74.8736 388.555 74.9074 388.77 74.9336 388.985C75.137 390.633 75.3505 392.284 75.5858 393.934C75.634 394.271 75.6922 394.609 75.7408 394.948C75.9651 396.476 76.1947 398.004 76.4473 399.532C76.5193 399.969 76.6041 400.406 76.6781 400.842C76.9215 402.272 77.1662 403.703 77.4348 405.134C77.541 405.698 77.6628 406.263 77.7713 406.827C78.0249 408.13 78.2756 409.434 78.5497 410.736C78.7015 411.461 78.8725 412.184 79.0316 412.908C79.2826 414.052 79.5267 415.195 79.7925 416.337C80.0075 417.259 80.2437 418.179 80.4693 419.1C80.7002 420.046 80.9222 420.991 81.164 421.936C81.4726 423.138 81.804 424.339 82.1305 425.538C82.3109 426.203 82.4792 426.868 82.6659 427.532C83.1885 429.398 83.7333 431.262 84.2997 433.125C126.102 570.648 271.415 648.268 408.872 606.486C411.327 605.74 413.764 604.959 416.181 604.147C416.905 603.907 417.618 603.639 418.34 603.39Z" fill="#E1D988"/>
<path d="M88.0504 269.629C90.0753 270.44 92.2162 270.482 94.1535 269.893C96.7375 269.108 98.9539 267.199 100.035 264.496C100.861 262.431 101.731 260.337 102.622 258.275C104.639 253.598 102.485 248.17 97.8093 246.151C93.1343 244.13 87.709 246.285 85.6926 250.962C84.7388 253.174 83.8051 255.419 82.9173 257.637C81.0258 262.367 83.3227 267.735 88.0504 269.629Z" fill="#1A0E0E" fill-opacity="0.44"/>
<path d="M88.2364 269.165L88.2364 269.165C83.7651 267.374 81.5925 262.297 83.3814 257.823C84.2677 255.609 85.1996 253.368 86.1517 251.16L86.1518 251.16C88.0588 246.737 93.1896 244.699 97.6109 246.61L97.6111 246.61C102.033 248.519 104.071 253.654 102.162 258.077C101.27 260.143 100.399 262.241 99.5703 264.31L99.5703 264.311C98.5483 266.866 96.4531 268.672 94.0081 269.415C92.1757 269.972 90.1518 269.932 88.2364 269.165Z" stroke="#1A0E0E" stroke-opacity="0.44"/>
<path d="M583.033 437.976C580.01 435.497 575.754 435.185 572.412 437.217C556.523 446.841 539.931 454.622 523.098 460.345C392.111 504.88 249.299 434.49 204.746 303.434C186.24 248.999 186.826 191.573 206.442 137.365C207.773 133.69 206.641 129.574 203.619 127.094C200.598 124.614 196.339 124.303 192.998 126.335C154.07 149.908 121.506 183.356 98.8285 223.061C96.3018 227.483 97.8379 233.117 102.26 235.645C106.679 238.175 112.311 236.639 114.837 232.216C131.677 202.733 154.362 176.957 181.233 156.592C168.296 207.082 170.301 259.4 187.289 309.369C210.457 377.52 258.764 432.574 323.31 464.388C387.858 496.204 460.918 500.971 529.034 477.812C538.991 474.427 548.86 470.376 558.56 465.7C529.464 526.298 477.725 572.494 413.469 594.341C282.483 638.876 139.671 568.486 95.1177 437.43C83.5311 403.347 79.4097 368.058 82.8689 332.541C83.3635 327.472 79.6548 322.96 74.5863 322.465C69.5179 321.969 65.0099 325.678 64.517 330.748C60.8022 368.893 65.2256 406.783 77.6621 443.365C100.83 511.516 149.138 566.571 213.683 598.385C278.229 630.197 351.29 634.965 419.406 611.805C497.14 585.376 557.809 525.761 585.856 448.248C587.187 444.573 586.055 440.456 583.033 437.976Z" fill="#0B0B0B" fill-opacity="0.51"/>
<path d="M572.671 437.645L572.672 437.644C575.831 435.723 579.857 436.017 582.715 438.363C585.574 440.709 586.644 444.602 585.386 448.078L585.788 448.224L585.385 448.078C557.39 525.449 496.834 584.952 419.245 611.332C351.254 634.449 278.331 629.69 213.905 597.936C149.478 566.181 101.261 511.23 78.1355 443.204C65.7217 406.689 61.3068 368.87 65.0146 330.796L64.5621 330.752L65.0146 330.796C65.4808 326.001 69.7443 322.493 74.5377 322.962C79.3313 323.431 82.8391 327.698 82.3713 332.492L82.8689 332.541L82.3713 332.492C78.9051 368.081 83.0351 403.442 94.6443 437.59C139.287 568.908 282.382 639.438 413.63 594.815C478.014 572.924 529.856 526.635 559.011 465.917L559.628 464.63L558.343 465.25C548.661 469.917 538.81 473.96 528.873 477.338C460.883 500.455 387.96 495.697 323.531 463.94C259.104 432.185 210.888 377.233 187.762 309.208C170.806 259.33 168.805 207.111 181.717 156.716L182.073 155.328L180.931 156.193C154.006 176.599 131.276 202.426 114.403 231.968C112.014 236.152 106.688 237.604 102.508 235.211L102.508 235.211C98.3256 232.82 96.8729 227.492 99.2626 223.309L99.2627 223.309C121.898 183.678 154.402 150.292 193.257 126.762L193.258 126.762C196.416 124.841 200.444 125.134 203.302 127.481L203.302 127.481C206.16 129.826 207.23 133.72 205.972 137.195L205.972 137.195C186.317 191.51 185.73 249.052 204.272 303.595C248.915 434.912 392.01 505.442 523.259 460.818C540.128 455.083 556.753 447.286 572.671 437.645Z" stroke="#1A0E0E" stroke-opacity="0.44"/>
</g>
<defs>
<clipPath id="clip0_1_39">
<rect width="605" height="590" fill="white" transform="translate(0 175.949) rotate(-16.9073)"/>
</clipPath>
</defs>
</svg>
