<svg width="800" height="671" viewBox="0 0 800 671" fill="none" xmlns="http://www.w3.org/2000/svg">
<path d="M-111 175H935V815H-111V175Z" fill="url(#paint0_radial_0_28)"/>
<path d="M564 463C484 463 448 437.5 375 339.5H421C440.167 376.833 497.3 448.7 572.5 437.5C666.5 423.5 718.5 419.5 749.5 437.5C780.5 455.5 776 463 785.5 482.5C795 502 766 510.5 742 513.5C718 516.5 703 482.5 718.5 472.5C734 462.5 738 475.5 749.5 482.5C761 489.5 783 478 728 451.5C673 425 644 463 564 463Z" fill="#E2EBEE"/>
<path d="M563.84 459.15C483.908 459.15 454.938 428.081 382 337.5H409C428.15 372.007 489.567 418.281 557 453C586 467.931 687.235 423.863 718.209 440.5C749.182 457.137 773.5 460.13 773.5 480.5C773.5 502.326 761.98 498.227 738 501C714.02 503.773 705.013 484.243 720.5 475C735.987 465.757 742.01 480.03 753.5 486.5C764.99 492.97 782.654 473.015 727.701 448.521C672.747 424.027 643.772 459.15 563.84 459.15Z" fill="#D3D8DA" fill-opacity="0.81"/>
<path d="M341 470C261 470 225 444.5 152 346.5H198C217.167 383.833 274.3 455.7 349.5 444.5C443.5 430.5 495.5 426.5 526.5 444.5C557.5 462.5 553 470 562.5 489.5C572 509 543 517.5 519 520.5C495 523.5 480 489.5 495.5 479.5C511 469.5 515 482.5 526.5 489.5C538 496.5 560 485 505 458.5C450 432 421 470 341 470Z" fill="#E2EBEE"/>
<path d="M340.84 466.15C260.908 466.15 231.938 435.081 159 344.5H186C205.15 379.007 266.567 425.281 334 460C363 474.931 464.235 430.863 495.209 447.5C526.182 464.137 550.5 467.13 550.5 487.5C550.5 509.326 538.98 505.227 515 508C491.02 510.773 482.013 491.243 497.5 482C512.987 472.757 519.01 487.03 530.5 493.5C541.99 499.97 559.654 480.015 504.701 455.521C449.747 431.027 420.772 466.15 340.84 466.15Z" fill="#D3D8DA" fill-opacity="0.81"/>
<path d="M488 463C408 463 372 437.5 299 339.5H345C364.167 376.833 421.3 448.7 496.5 437.5C590.5 423.5 642.5 419.5 673.5 437.5C704.5 455.5 700 463 709.5 482.5C719 502 690 510.5 666 513.5C642 516.5 627 482.5 642.5 472.5C658 462.5 662 475.5 673.5 482.5C685 489.5 707 478 652 451.5C597 425 568 463 488 463Z" fill="#E2EBEE"/>
<path d="M487.84 459.15C407.908 459.15 378.938 428.081 306 337.5H333C352.15 372.007 413.567 418.281 481 453C510 467.931 611.235 423.863 642.209 440.5C673.182 457.137 697.5 460.13 697.5 480.5C697.5 502.326 685.98 498.227 662 501C638.02 503.773 629.013 484.243 644.5 475C659.987 465.757 666.01 480.03 677.5 486.5C688.99 492.97 706.654 473.015 651.701 448.521C596.747 424.027 567.772 459.15 487.84 459.15Z" fill="#D3D8DA" fill-opacity="0.81"/>
<path d="M407 462.5C327 462.5 291 437 218 339H264C283.167 376.333 340.3 448.2 415.5 437C509.5 423 561.5 419 592.5 437C623.5 455 619 462.5 628.5 482C638 501.5 609 510 585 513C561 516 546 482 561.5 472C577 462 581 475 592.5 482C604 489 626 477.5 571 451C516 424.5 487 462.5 407 462.5Z" fill="#E2EBEE"/>
<path d="M406.84 458.65C326.908 458.65 297.938 427.581 225 337H252C271.15 371.507 332.567 417.781 400 452.5C429 467.431 530.235 423.363 561.209 440C592.182 456.637 616.5 459.63 616.5 480C616.5 501.826 604.98 497.727 581 500.5C557.02 503.273 548.013 483.743 563.5 474.5C578.987 465.257 585.01 479.53 596.5 486C607.99 492.47 625.654 472.515 570.701 448.021C515.747 423.527 486.772 458.65 406.84 458.65Z" fill="#D3D8DA" fill-opacity="0.81"/>
<path d="M636.383 218.037C636.383 218.037 645.446 40.2248 501.509 5.53728C357.571 -29.1502 315.634 110.475 315.634 110.475C315.634 110.475 267.634 99.2873 223.134 136.287C188.196 165.35 183.259 208.975 183.259 208.975C183.259 208.975 137.321 201.975 99.071 239.1C71.3835 265.975 74.071 300.475 74.071 300.475L129.821 349.475L696.384 334.162L726.196 302.162C726.196 302.162 730.946 266.662 697.821 239.975C664.696 213.225 636.383 218.037 636.383 218.037Z" fill="#E2EBEE"/>
<path d="M208.321 287.1C208.321 287.1 230.884 312.6 302.446 310.912C374.009 309.225 392.821 290.475 392.821 290.475C392.821 290.475 424.196 323.412 514.884 316.412C605.571 309.412 631.634 290.287 631.634 290.287C631.634 290.287 653.759 306.1 681.759 306.537C709.696 306.975 726.196 302.1 726.196 302.1C726.196 302.1 723.259 324.35 713.509 338.6C703.759 352.85 687.508 363.725 661.821 363.537C636.071 363.35 557.821 364.037 478.384 363.912C398.946 363.787 171.946 365.1 138.384 363.662C112.821 362.6 94.2585 347.537 85.696 334.787C72.0085 314.412 74.2585 292.912 74.2585 292.912C74.2585 292.912 100.009 313.1 134.759 311.6C182.259 309.6 208.321 287.1 208.321 287.1Z" fill="#B9CED3"/>
<defs>
<radialGradient id="paint0_radial_0_28" cx="0" cy="0" r="1" gradientUnits="userSpaceOnUse" gradientTransform="translate(411.568 318.291) rotate(90.0778) scale(318.291 408.506)">
<stop offset="0.359375" stop-color="#D9D9D9"/>
<stop offset="1" stop-color="#D9D9D9" stop-opacity="0"/>
</radialGradient>
</defs>
</svg>
