<svg width="800" height="800" viewBox="0 0 800 800" fill="none" xmlns="http://www.w3.org/2000/svg">
<path d="M696.383 618.037C696.383 618.037 705.446 440.225 561.509 405.537C417.571 370.85 375.634 510.475 375.634 510.475C375.634 510.475 327.634 499.287 283.134 536.287C248.196 565.35 243.259 608.975 243.259 608.975C243.259 608.975 197.321 601.975 159.071 639.1C131.384 665.975 134.071 700.475 134.071 700.475L189.821 749.475L756.384 734.162L786.196 702.162C786.196 702.162 790.946 666.662 757.821 639.975C724.696 613.225 696.383 618.037 696.383 618.037Z" fill="#E2EBEE"/>
<path d="M268.321 687.1C268.321 687.1 290.884 712.6 362.446 710.912C434.009 709.225 452.821 690.475 452.821 690.475C452.821 690.475 484.196 723.412 574.884 716.412C665.571 709.412 691.634 690.287 691.634 690.287C691.634 690.287 713.759 706.1 741.759 706.537C769.696 706.975 786.196 702.1 786.196 702.1C786.196 702.1 783.259 724.35 773.509 738.6C763.759 752.85 747.509 763.725 721.821 763.537C696.071 763.35 617.821 764.037 538.384 763.912C458.946 763.787 231.946 765.1 198.384 763.662C172.821 762.6 154.259 747.537 145.696 734.787C132.009 714.412 134.259 692.912 134.259 692.912C134.259 692.912 160.009 713.1 194.759 711.6C242.259 709.6 268.321 687.1 268.321 687.1Z" fill="#B9CED3"/>
</svg>
