<svg width="800" height="800" viewBox="0 0 800 800" fill="none" xmlns="http://www.w3.org/2000/svg">
<path d="M620.125 407.25C620.125 407.25 642.25 260.563 510.125 225.813C366.688 188.063 333.062 321.25 333.062 321.25C333.062 321.25 291.312 309.875 252.75 340.875C222.562 365.125 217.375 407.875 217.375 407.875C217.375 407.875 158.562 405.875 133.312 446.438C109.312 485 133.312 510.313 133.312 510.313L480.438 496.375L694.125 497.625C694.125 497.625 709.562 457.5 679.875 429.688C650.125 401.938 620.125 407.25 620.125 407.25Z" fill="#E2EBEE"/>
<path d="M383.062 421.812C383.062 421.812 409.625 448.375 479.188 443.937C548.75 439.5 585.375 414.875 593.625 411.062C601.875 407.25 611.312 398.438 614.5 404.75C617.688 411.063 610.687 428.75 601.25 441.437C591.75 454.062 586.438 461.75 584.812 467.375C583.562 471.812 604.438 478.125 643.625 480C677.125 481.625 698.25 474.875 698.25 474.875C698.25 474.875 699.188 495.938 691 512.375C683.375 527.563 675.438 532.5 662.812 535.062C656.312 536.375 533.625 536.312 428.062 538.812C322.5 541.312 184.625 545.75 161.25 538.188C137.875 530.625 132.125 515.812 129.125 510.062C123.875 500.188 122.75 484.75 122.75 484.75C122.75 484.75 148.625 497.75 185.312 492.688C222 487.625 241.562 468.687 246.625 466.75C251.688 464.875 275.688 476.875 313.625 467.375C366.625 454.062 383.062 421.812 383.062 421.812Z" fill="#B9CED3"/>
<path d="M295.375 568.187C287.125 565.187 251.313 590.875 238.438 625.125C219.438 675.687 287.125 692.562 301.375 643.875C306.813 625.375 306.75 572.312 295.375 568.187Z" fill="#4FC2F7"/>
<path d="M562.937 605.062C555.625 601.812 526.562 623.938 513.375 642.5C500.75 660.25 489.5 690.25 520.5 705.625C554.312 722.313 569.687 686 571.125 659.625C572.437 635.75 569.375 607.937 562.937 605.062Z" fill="#4FC2F7"/>
<path d="M415.75 665C406.562 662.813 371.312 691.438 358.687 718.125C333.375 771.625 411.125 790.5 420.75 739.187C426.875 706.625 423.25 666.75 415.75 665Z" fill="#4FC2F7"/>
<path d="M382.75 706.563C375.437 703.625 361.187 721.562 362.75 737.5C364.375 753.437 377.5 754.875 383.75 746.063C392.125 734.375 390 709.438 382.75 706.563Z" fill="#AFE6F8"/>
<path d="M260.5 609.75C253.562 606.5 241.687 625.5 241.812 635.312C242.125 655.312 256.875 656.625 263.75 646.75C270.625 636.937 270.312 614.375 260.5 609.75Z" fill="#AFE6F8"/>
<path d="M530.188 648.562C521.938 644.625 507.75 662.813 508.813 676C510.688 698.75 528.75 697.375 534.812 684.937C540.875 672.5 537.625 652.125 530.188 648.562Z" fill="#AFE6F8"/>
</svg>
